<svg xmlns="http://www.w3.org/2000/svg" viewBox="0 0 180 72" role="img" aria-labelledby="title">
  <title id="title">Ely</title>
  <defs>
    <linearGradient id="elyGradient" x1="17" y1="11" x2="164" y2="65" gradientUnits="userSpaceOnUse">
      <stop offset="0" stop-color="#0f766e"/>
      <stop offset="0.45" stop-color="#0891b2"/>
      <stop offset="1" stop-color="#a3e635"/>
    </linearGradient>
  </defs>
  <rect x="4" y="4" width="172" height="64" rx="28" fill="url(#elyGradient)" opacity="0.14"/>
  <path d="M25 53V19h34v9H36v4.8h20.5v8.4H36V44h24v9H25Zm45 0V17h11v36H70Zm31.5 13.5c-5.2 0-9.3-1.3-12.6-3.8l4.6-7.6c2 1.5 4.1 2.2 6.5 2.2 3.5 0 5.5-1.5 6.7-4.4L91.1 27h12.2l8.8 15.8L119.7 27h11.6l-15.1 28.2c-3.7 7.7-8.2 11.3-14.7 11.3Z" fill="url(#elyGradient)"/>
</svg>
